<svg id="SvgjsSvg1001" width="288" height="288" xmlns="http://www.w3.org/2000/svg" version="1.1" xmlns:xlink="http://www.w3.org/1999/xlink" xmlns:svgjs="http://svgjs.com/svgjs"><defs id="SvgjsDefs1002"></defs><g id="SvgjsG1008"><svg xmlns="http://www.w3.org/2000/svg" viewBox="0 0 388.073 190.927" width="288" height="288"><path fill="#fd6703" d="M92.402 9.434S78.356 144.876 247.158 153.077c0 0-26.666 18.973-89.883 22.192S28.951 147.225 12.482 14.263l79.92-4.829z" class="colorfdbb03 svgShape"></path><path fill="#352317" d="M297.212 121.288c56.98-7.056 83.678-37.956 89.561-65.023 4.544-20.906-3.043-40.588-19.332-50.138-16.774-9.83-32.63-6.541-45.036.814-2.023-4.101-6.237-6.899-11.076-6.899H12.511C6.016.042.63 5.075.187 11.555c-.078 1.182-5.787 100.59 65.864 154.67h-53.7C5.53 166.225 0 171.755 0 178.576s5.53 12.351 12.351 12.351h354.975c6.821 0 12.351-5.53 12.351-12.351s-5.53-12.351-12.351-12.351H257.791c17.25-13.021 29.984-28.665 39.421-44.937zm57.733-93.85c7.011 4.11 9.957 13.144 7.689 23.581-3.386 15.578-19.254 34.557-52.498 42.844 7.51-20.155 10.948-39.545 12.478-54.447 3.702-4.783 17.546-20.651 32.331-11.978zM118.9 166.225C35.83 138.407 25.595 55.524 24.727 24.745h274.384c-.865 30.794-11.106 113.665-94.167 141.48H118.9z" class="color352517 svgShape"></path></svg></g></svg>